# xmcd CD Database Entry
#
# Track frame offsets:
# 150
# 16125
# 36427
# 52807
# 72177
# 87237
# 99885
# 119467
# 140775
# 155377
# 168995
# 183830
#
# Disc length: 2643 seconds
#
# Revision: 1
# Processed by: cddbd v1.4PL0 Copyright (c) Steve Scherf et al.
# Submitted via: tcd 2.0b
#
DISCID=940a510c
DTITLE=Nothin' Fancy - Once Upon a Road
DYEAR=1900
DGENRE=
TTITLE0=I'm Running Away
TTITLE1=Once Upon a Road
TTITLE2=Fallen to my Foe
TTITLE3=You Say I Say
TTITLE4=Do Not Pass Me Up
TTITLE5=Graveltown Road
TTITLE6=The Light Came Shining Down
TTITLE7=Sign of the TImes
TTITLE8=I Wonder Where you are Tonight
TTITLE9=Something's Up We're Going Down
TTITLE10=Make me a Pallet on the FLoor
TTITLE11=When the Angels Take my Hand
EXTD=
EXTT0=
EXTT1=
EXTT2=
EXTT3=
EXTT4=
EXTT5=
EXTT6=
EXTT7=
EXTT8=
EXTT9=
EXTT10=
EXTT11=
PLAYORDER=
